<?xml version="1.0" encoding="UTF-8" standalone="no"?>
<svg
   xmlns:dc="http://purl.org/dc/elements/1.1/"
   xmlns:cc="http://creativecommons.org/ns#"
   xmlns:rdf="http://www.w3.org/1999/02/22-rdf-syntax-ns#"
   xmlns:svg="http://www.w3.org/2000/svg"
   xmlns="http://www.w3.org/2000/svg"
   xmlns:sodipodi="http://sodipodi.sourceforge.net/DTD/sodipodi-0.dtd"
   xmlns:inkscape="http://www.inkscape.org/namespaces/inkscape"
   inkscape:version="1.0 (4035a4fb49, 2020-05-01)"
   sodipodi:docname="git-staging-area.svg"
   id="svg103"
   xml:space="preserve"
   enable-background="new 0 0 622 218"
   viewBox="0 0 622 218"
   height="218px"
   width="622px"
   y="0px"
   x="0px"
   version="1.1"><metadata
   id="metadata109"><rdf:RDF><cc:Work
       rdf:about=""><dc:format>image/svg+xml</dc:format><dc:type
         rdf:resource="http://purl.org/dc/dcmitype/StillImage" /><dc:title></dc:title></cc:Work></rdf:RDF></metadata><defs
   id="defs107">
	
	
	
	
	
	
	
	
	
	
</defs><sodipodi:namedview
   inkscape:current-layer="svg103"
   inkscape:window-maximized="0"
   inkscape:window-y="52"
   inkscape:window-x="6"
   inkscape:cy="133.07255"
   inkscape:cx="196.20184"
   inkscape:zoom="1.0779743"
   showgrid="false"
   id="namedview105"
   inkscape:window-height="1022"
   inkscape:window-width="1908"
   inkscape:pageshadow="2"
   inkscape:pageopacity="0"
   guidetolerance="10"
   gridtolerance="10"
   objecttolerance="10"
   borderopacity="1"
   bordercolor="#666666"
   pagecolor="#191919" />
<g
   id="Layer_5">
	<path
   id="path2"
   d="M598,23c0-8.284-6.716-15-15-15H198c-8.284,0-15,6.716-15,15v167   c0,8.284,6.716,15,15,15h385c8.284,0,15-6.716,15-15V23z"
   stroke-miterlimit="10"
   stroke="#FFFFFF"
   fill="#B5B5B5" />
	<rect
   id="rect4"
   height="28"
   width="70"
   fill="none"
   y="19"
   x="197" />
	<text
   id="text6"
   font-size="18"
   font-family="'Consolas'"
   transform="matrix(1 0 0 1 197 31.4199)">.git</text>
</g>
<g
   id="Layer_3">
	<g
   id="g22">
		<linearGradient
   y2="139.2339"
   x2="303.499"
   y1="83.9863"
   x1="303.499"
   gradientUnits="userSpaceOnUse"
   id="SVGID_1_">
			<stop
   id="stop9"
   style="stop-color:#C4C4C4"
   offset="0.0982" />
			<stop
   id="stop11"
   style="stop-color:#686868"
   offset="0.5326" />
			<stop
   id="stop13"
   style="stop-color:#000000"
   offset="1" />
		</linearGradient>
		<path
   id="path16"
   d="M253.453,138.206c0-9.264,22.404-16.778,50.047-16.778    s50.045,7.514,50.045,16.778v1.028c0,0,0-2.115,0-3.117c0-1.006,0-35.744,0-35.744v0.394c0-9.27-22.402-16.78-50.045-16.78    s-50.047,7.51-50.047,16.78v-0.394c0,0,0,34.519,0,35.733c0,1.205,0,3.128,0,3.128V138.206z"
   stroke-miterlimit="10"
   stroke="#231F20"
   fill="url(#SVGID_1_)" />
		<g
   id="g20">
			<path
   id="path18"
   d="M353.545,100.373c0,0,0,34.738,0,35.744     c0,1.002,0.355,3.117,0.355,3.117c0,9.271-22.758,16.78-50.4,16.78s-50.4-7.509-50.4-16.78c0,0,0.354-1.923,0.354-3.128     c0-1.214,0-35.733,0-35.733c0,9.274,22.404,16.785,50.047,16.785S353.545,109.647,353.545,100.373z"
   stroke-miterlimit="10"
   stroke="#231F20"
   fill="#FFFFFF" />
		</g>
	</g>
	<g
   id="g28">
		<polygon
   id="polygon24"
   points="341.719,94.965 282.411,94.965 269.235,109.459     328.542,109.459   "
   stroke-miterlimit="10"
   stroke="#000000"
   fill="#FFFFFF" />
		<line
   id="line26"
   y2="100.894"
   x2="331.165"
   y1="100.894"
   x1="282.411"
   stroke-width="2"
   stroke="#70BF41"
   fill="none" />
	</g>
</g>
<g
   id="Layer_4">
	<linearGradient
   y2="72.9126"
   x2="537.1768"
   y1="17.6602"
   x1="537.1768"
   gradientUnits="userSpaceOnUse"
   id="SVGID_2_">
		<stop
   id="stop31"
   style="stop-color:#C4C4C4"
   offset="0.0982" />
		<stop
   id="stop33"
   style="stop-color:#686868"
   offset="0.5326" />
		<stop
   id="stop35"
   style="stop-color:#000000"
   offset="1" />
	</linearGradient>
	<path
   id="path38"
   d="M487.13,71.882c0-9.268,22.407-16.781,50.047-16.781   c27.641,0,50.047,7.513,50.047,16.781v1.03c0,0,0-2.118,0-3.121s0-35.739,0-35.739v0.388c0-9.268-22.406-16.781-50.047-16.781   c-27.64,0-50.047,7.513-50.047,16.781v-0.388c0,0,0,34.519,0,35.728s0,3.132,0,3.132V71.882z"
   stroke-miterlimit="10"
   stroke="#231F20"
   fill="url(#SVGID_2_)" />
	<g
   id="g42">
		<path
   id="path40"
   d="M587.021,111.284c0,0,0,34.737,0,35.739    c0,1.003,0.354,3.122,0.354,3.122c0,9.268-22.76,16.779-50.4,16.779c-27.64,0-50.399-7.512-50.399-16.779    c0,0,0.353-1.923,0.353-3.132s0-35.729,0-35.729c0,9.268,22.407,16.78,50.047,16.78    C564.614,128.064,587.021,120.551,587.021,111.284z"
   stroke-miterlimit="10"
   stroke="#231F20"
   fill="#FFFFFF" />
	</g>
	<g
   id="g46">
		<path
   id="path44"
   d="M587.021,72.601c0,0,0,34.736,0,35.739    c0,1.002,0.354,3.12,0.354,3.12c0,9.268-22.76,16.78-50.4,16.78c-27.64,0-50.399-7.513-50.399-16.78c0,0,0.353-1.923,0.353-3.132    s0-35.728,0-35.728c0,9.268,22.407,16.78,50.047,16.78C564.614,89.381,587.021,81.869,587.021,72.601z"
   stroke-miterlimit="10"
   stroke="#231F20"
   fill="#FFFFFF" />
	</g>
	<g
   id="g50">
		<path
   id="path48"
   d="M587.021,33.628c0,0,0,34.737,0,35.739s0.354,3.12,0.354,3.12    c0,9.269-22.76,16.781-50.4,16.781c-27.64,0-50.399-7.513-50.399-16.781c0,0,0.353-1.922,0.353-3.131s0-35.728,0-35.728    c0,9.268,22.407,16.78,50.047,16.78C564.614,50.409,587.021,42.896,587.021,33.628z"
   stroke-miterlimit="10"
   stroke="#231F20"
   fill="#FFFFFF" />
	</g>
	<g
   id="g56">
		<polygon
   id="polygon52"
   points="573.216,26.381 513.908,26.381 500.732,40.875     560.039,40.875   "
   stroke-miterlimit="10"
   stroke="#000000"
   fill="#FFFFFF" />
		<line
   id="line54"
   y2="32.311"
   x2="562.662"
   y1="32.311"
   x1="513.908"
   stroke-width="2"
   stroke="#70BF41"
   fill="none" />
	</g>
</g>
<g
   id="Layer_1">
	<g
   id="g71">
		<rect
   id="rect59"
   height="128"
   width="100"
   fill="#DCDEE0"
   y="45"
   x="24" />
		<rect
   id="rect61"
   height="128"
   width="100"
   stroke-width="2"
   stroke="#85888D"
   fill="none"
   y="45"
   x="24" />
		<line
   id="line63"
   y2="65"
   x2="111"
   y1="65"
   x1="37"
   stroke-width="2"
   stroke="#000000"
   fill="none" />
		<line
   id="line65"
   y2="71"
   x2="111"
   y1="71"
   x1="37"
   stroke-width="2"
   stroke="#000000"
   fill="none" />
		<line
   id="line67"
   y2="77"
   x2="111"
   y1="77"
   x1="37"
   stroke-width="2"
   stroke="#000000"
   fill="none" />
		<line
   id="line69"
   y2="89"
   x2="111"
   y1="89"
   x1="37"
   stroke-width="2"
   stroke="#70BF41"
   fill="none" />
	</g>
</g>
<g
   id="g78">
		<rect
   x="150.871"
   y="96.767998"
   fill="#45beee"
   width="45.956001"
   height="30.604"
   id="rect74" />
		<polygon
   fill="#45beee"
   points="234.02,111.163 193.467,81.571 193.467,141.696 "
   id="polygon76" />
	</g><rect
   x="164"
   y="106.069"
   fill="none"
   width="52.743"
   height="14"
   id="rect80" /><text
   y="114.3496"
   x="164"
   font-family="Consolas"
   font-size="12px"
   id="text82">git add</text><g
   id="g88">
		<rect
   x="381.25101"
   y="96.767998"
   fill="#45beee"
   width="45.956001"
   height="30.604"
   id="rect84" />
		<polygon
   fill="#45beee"
   points="464.399,111.163 423.847,81.571 423.847,141.696 "
   id="polygon86" />
	</g><rect
   x="376.98001"
   y="106.069"
   fill="none"
   width="85.542"
   height="14"
   id="rect90" /><text
   y="114.3496"
   x="386.7637"
   font-family="Consolas"
   font-size="12px"
   id="text92">git commit</text><rect
   x="229"
   y="166"
   fill="none"
   width="147"
   height="17"
   id="rect94" /><text
   y="174.6279"
   x="269.47659"
   font-family="Helvetica"
   font-size="12px"
   id="text96">staging area</text><rect
   x="464.785"
   y="179"
   fill="none"
   width="147"
   height="17"
   id="rect98" /><text
   y="187.6279"
   x="511.94141"
   font-family="Helvetica"
   font-size="12px"
   id="text100">repository</text><text
   style="fill:#f9f9f9;"
   id="text111"
   font-size="12px"
   font-family="Consolas"
   x="17.130211"
   y="196.35611">working directory</text>
</svg>
