<?xml version="1.0" encoding="UTF-8" standalone="no"?>
<svg
   xmlns:dc="http://purl.org/dc/elements/1.1/"
   xmlns:cc="http://creativecommons.org/ns#"
   xmlns:rdf="http://www.w3.org/1999/02/22-rdf-syntax-ns#"
   xmlns:svg="http://www.w3.org/2000/svg"
   xmlns="http://www.w3.org/2000/svg"
   xmlns:sodipodi="http://sodipodi.sourceforge.net/DTD/sodipodi-0.dtd"
   xmlns:inkscape="http://www.inkscape.org/namespaces/inkscape"
   sodipodi:docname="qr.svg"
   inkscape:version="1.0 (4035a4fb49, 2020-05-01)"
   width="36.852352mm"
   height="36.852345mm"
   viewBox="0 0 36.852352 36.852344"
   version="1.1"
   id="svg1948">
  <defs
     id="defs1942" />
  <sodipodi:namedview
     inkscape:window-maximized="0"
     inkscape:window-y="34"
     inkscape:window-x="6"
     inkscape:window-height="1040"
     inkscape:window-width="1908"
     showgrid="false"
     inkscape:document-rotation="0"
     inkscape:current-layer="layer1"
     inkscape:document-units="mm"
     inkscape:cy="29.726573"
     inkscape:cx="127.53324"
     inkscape:zoom="2.8"
     inkscape:pageshadow="2"
     inkscape:pageopacity="0"
     borderopacity="1.0"
     bordercolor="#666666"
     pagecolor="#191919"
     id="base" />
  <metadata
     id="metadata1945">
    <rdf:RDF>
      <cc:Work
         rdf:about="">
        <dc:format>image/svg+xml</dc:format>
        <dc:type
           rdf:resource="http://purl.org/dc/dcmitype/StillImage" />
        <dc:title></dc:title>
      </cc:Work>
    </rdf:RDF>
  </metadata>
  <g
     transform="translate(-106.98596,-149.31998)"
     id="layer1"
     inkscape:groupmode="layer"
     inkscape:label="Layer 1">
    <rect
       ry="3.0079989"
       id="rect1953"
       style="fill:#ffffff;stroke:none;stroke-width:0.264583"
       height="36.852345"
       width="36.852352"
       y="149.31998"
       x="106.98596" />
    <g
       transform="matrix(0.264583,0,0,0.264583,105.833,148.167)"
       id="g1957"
       style="fill:#000000;stroke:none">
      <path
         id="path1955"
         d="m 127.6,132 h -3.2 c -0.22091,0 -0.4,-0.17909 -0.4,-0.4 V 124 h 4 v 7.6 c 0,0.22091 -0.17909,0.4 -0.4,0.4 z m -12,0 h -3.2 c -0.22091,0 -0.4,-0.17909 -0.4,-0.4 v -11.2 c 0,-0.22091 -0.17909,-0.4 -0.4,-0.4 h -7.2 c -0.22091,0 -0.4,-0.17909 -0.4,-0.4 v -3.2 c 0,-0.22091 -0.17909,-0.4 -0.4,-0.4 H 96 V 96 h 11.6 c 0.22091,0 0.4,-0.179086 0.4,-0.4 v -7.2 c 0,-0.220914 -0.17909,-0.4 -0.4,-0.4 h -3.2 c -0.22091,0 -0.4,0.179086 -0.4,0.4 v 3.2 c 0,0.220914 -0.17909,0.4 -0.4,0.4 H 96 V 76.4 C 96,76.179086 96.179086,76 96.4,76 h 3.2 c 0.220914,0 0.4,0.179086 0.4,0.4 v 3.2 c 0,0.220914 0.17909,0.4 0.4,0.4 h 3.6 v 3.6 c 0,0.220914 0.17909,0.4 0.4,0.4 h 7.2 c 0.22091,0 0.4,0.179086 0.4,0.4 v 3.2 c 0,0.220914 0.17909,0.4 0.4,0.4 h 3.6 v 3.6 c 0,0.220914 -0.17909,0.4 -0.4,0.4 h -3.2 c -0.22091,0 -0.4,0.179086 -0.4,0.4 v 3.2 c 0,0.220914 0.17909,0.4 0.4,0.4 h 3.2 c 0.22091,0 0.4,0.179086 0.4,0.4 v 11.2 c 0,0.22091 0.17909,0.4 0.4,0.4 h 7.6 v 3.6 c 0,0.22091 -0.17909,0.4 -0.4,0.4 h -7.2 c -0.22091,0 -0.4,0.17909 -0.4,0.4 v 3.2 c 0,0.22091 0.17909,0.4 0.4,0.4 h 7.2 c 0.22091,0 0.4,0.17909 0.4,0.4 v 7.6 h -7.6 c -0.22091,0 -0.4,0.17909 -0.4,0.4 v 7.2 c 0,0.22091 -0.17909,0.4 -0.4,0.4 z m -16,0 h -3.2 c -0.220914,0 -0.4,-0.17909 -0.4,-0.4 v -3.2 c 0,-0.22091 -0.179086,-0.4 -0.4,-0.4 h -7.2 c -0.220914,0 -0.4,0.17909 -0.4,0.4 v 3.2 c 0,0.22091 -0.179086,0.4 -0.4,0.4 h -3.2 c -0.220914,0 -0.4,-0.17909 -0.4,-0.4 v -3.2 c 0,-0.22091 -0.179086,-0.4 -0.4,-0.4 h -3.2 c -0.220914,0 -0.4,-0.17909 -0.4,-0.4 v -3.2 c 0,-0.22091 0.179086,-0.4 0.4,-0.4 h 11.2 c 0.220914,0 0.4,-0.17909 0.4,-0.4 V 116 h 4 v 7.6 c 0,0.22091 0.179086,0.4 0.4,0.4 h 3.2 c 0.220914,0 0.4,0.17909 0.4,0.4 v 7.2 c 0,0.22091 -0.179086,0.4 -0.4,0.4 z m -32,0 H 64.4 C 64.179086,132 64,131.82091 64,131.6 V 128 h 4 v 3.6 c 0,0.22091 -0.179086,0.4 -0.4,0.4 z m -8,0 H 48.4 c -0.220914,0 -0.4,-0.17909 -0.4,-0.4 v -7.2 c 0,-0.22091 0.179086,-0.4 0.4,-0.4 h 3.2 c 0.220914,0 0.4,-0.17909 0.4,-0.4 V 120 h 3.6 c 0.220914,0 0.4,-0.17909 0.4,-0.4 v -3.2 c 0,-0.22091 0.179086,-0.4 0.4,-0.4 h 3.2 c 0.220914,0 0.4,0.17909 0.4,0.4 v 3.2 c 0,0.22091 0.179086,0.4 0.4,0.4 H 64 v 8 h -4 v -3.6 c 0,-0.22091 -0.179086,-0.4 -0.4,-0.4 h -3.2 c -0.220914,0 -0.4,0.17909 -0.4,0.4 v 3.2 c 0,0.22091 0.179086,0.4 0.4,0.4 H 60 v 3.6 c 0,0.22091 -0.179086,0.4 -0.4,0.4 z m -16,0 H 16.4 c -0.220914,0 -0.4,-0.17909 -0.4,-0.4 v -27.2 c 0,-0.22091 0.179086,-0.4 0.4,-0.4 h 27.2 c 0.220914,0 0.4,0.17909 0.4,0.4 v 27.2 c 0,0.22091 -0.179086,0.4 -0.4,0.4 z m 64,-4 h -3.2 c -0.22091,0 -0.4,-0.17909 -0.4,-0.4 v -3.2 c 0,-0.22091 0.17909,-0.4 0.4,-0.4 h 3.2 c 0.22091,0 0.4,0.17909 0.4,0.4 v 3.2 c 0,0.22091 -0.17909,0.4 -0.4,0.4 z m -36,0 H 68 v -3.6 c 0,-0.22091 0.179086,-0.4 0.4,-0.4 H 72 v 3.6 c 0,0.22091 -0.179086,0.4 -0.4,0.4 z M 40,127.6 V 108.4 C 40,108.17909 39.820914,108 39.6,108 H 20.4 c -0.220914,0 -0.4,0.17909 -0.4,0.4 v 19.2 c 0,0.22091 0.179086,0.4 0.4,0.4 h 19.2 c 0.220914,0 0.4,-0.17909 0.4,-0.4 z M 131.6,124 H 128 v -3.6 c 0,-0.22091 0.17909,-0.4 0.4,-0.4 h 3.2 c 0.22091,0 0.4,0.17909 0.4,0.4 v 3.2 c 0,0.22091 -0.17909,0.4 -0.4,0.4 z m -56,0 H 72 v -4 h 3.6 c 0.220914,0 0.4,0.17909 0.4,0.4 v 3.2 c 0,0.22091 -0.179086,0.4 -0.4,0.4 z m -40,0 H 24.4 c -0.220914,0 -0.4,-0.17909 -0.4,-0.4 v -11.2 c 0,-0.22091 0.179086,-0.4 0.4,-0.4 h 11.2 c 0.220914,0 0.4,0.17909 0.4,0.4 v 11.2 c 0,0.22091 -0.179086,0.4 -0.4,0.4 z m 36,-4 H 64 v -3.6 c 0,-0.22091 0.179086,-0.4 0.4,-0.4 h 3.2 c 0.220914,0 0.4,-0.17909 0.4,-0.4 v -3.2 C 68,112.17909 67.820914,112 67.6,112 H 64.4 C 64.179086,112 64,111.82091 64,111.6 V 96 h 7.6 C 71.820914,96 72,95.820914 72,95.6 V 92.4 C 72,92.179086 72.179086,92 72.4,92 H 80 v 3.6 C 80,95.820914 79.820914,96 79.6,96 H 76.4 C 76.179086,96 76,96.179086 76,96.4 v 3.2 c 0,0.220914 -0.179086,0.4 -0.4,0.4 h -7.2 c -0.220914,0 -0.4,0.17909 -0.4,0.4 v 7.2 c 0,0.22091 0.179086,0.4 0.4,0.4 h 3.2 c 0.220914,0 0.4,0.17909 0.4,0.4 V 120 Z m -20,0 h -3.2 c -0.220914,0 -0.4,-0.17909 -0.4,-0.4 v -3.2 c 0,-0.22091 0.179086,-0.4 0.4,-0.4 h 3.2 c 0.220914,0 0.4,0.17909 0.4,0.4 v 3.6 z m 80,-4 h -3.2 c -0.22091,0 -0.4,-0.17909 -0.4,-0.4 v -3.2 c 0,-0.22091 0.17909,-0.4 0.4,-0.4 h 3.2 c 0.22091,0 0.4,0.17909 0.4,0.4 v 3.2 c 0,0.22091 -0.17909,0.4 -0.4,0.4 z m -40,0 H 76.4 c -0.220914,0 -0.4,-0.17909 -0.4,-0.4 v -7.2 c 0,-0.22091 0.179086,-0.4 0.4,-0.4 H 80 v 3.6 c 0,0.22091 0.179086,0.4 0.4,0.4 h 7.2 c 0.220914,0 0.4,-0.17909 0.4,-0.4 V 108 h 3.6 c 0.220914,0 0.4,0.17909 0.4,0.4 v 7.6 z m 20.4,-4.4 v -11.2 c 0,-0.22091 -0.17909,-0.4 -0.4,-0.4 h -11.2 c -0.22091,0 -0.4,0.17909 -0.4,0.4 v 11.2 c 0,0.22091 0.17909,0.4 0.4,0.4 h 11.2 c 0.22091,0 0.4,-0.17909 0.4,-0.4 z M 59.6,112 H 52.4 C 52.179086,112 52,111.82091 52,111.6 V 108 h 3.6 c 0.220914,0 0.4,-0.17909 0.4,-0.4 V 100 h 3.6 c 0.220914,0 0.4,0.17909 0.4,0.4 v 11.2 c 0,0.22091 -0.179086,0.4 -0.4,0.4 z m 68,-4 H 124 v -3.6 c 0,-0.22091 -0.17909,-0.4 -0.4,-0.4 h -3.2 c -0.22091,0 -0.4,-0.17909 -0.4,-0.4 v -7.2 c 0,-0.220914 0.17909,-0.4 0.4,-0.4 h 3.6 v 3.6 c 0,0.220914 0.17909,0.4 0.4,0.4 h 7.2 c 0.22091,0 0.4,0.17909 0.4,0.4 v 3.2 c 0,0.22091 -0.17909,0.4 -0.4,0.4 h -3.2 c -0.22091,0 -0.4,0.17909 -0.4,0.4 v 3.2 c 0,0.22091 -0.17909,0.4 -0.4,0.4 z m -20,0 h -3.2 c -0.22091,0 -0.4,-0.17909 -0.4,-0.4 v -3.2 c 0,-0.22091 0.17909,-0.4 0.4,-0.4 h 3.2 c 0.22091,0 0.4,0.17909 0.4,0.4 v 3.2 c 0,0.22091 -0.17909,0.4 -0.4,0.4 z m -20,0 H 80 v -7.6 c 0,-0.22091 0.179086,-0.4 0.4,-0.4 h 3.2 c 0.220914,0 0.4,0.17909 0.4,0.4 v 3.2 c 0,0.22091 0.179086,0.4 0.4,0.4 h 3.2 c 0.220914,0 0.4,0.17909 0.4,0.4 v 3.6 z m -36,0 H 48.4 C 48.179086,108 48,107.82091 48,107.6 V 100 h 4 v 8 z m 4,-8 H 52 v -4 h 3.6 c 0.220914,0 0.4,0.179086 0.4,0.4 v 3.6 z m -8,0 H 36.4 C 36.179086,100 36,99.820914 36,99.6 V 92.4 C 36,92.179086 36.179086,92 36.4,92 H 40 v 3.6 c 0,0.220914 0.179086,0.4 0.4,0.4 h 3.2 C 43.820914,96 44,95.820914 44,95.6 V 92.4 C 44,92.179086 43.820914,92 43.6,92 H 40 v -4 h 3.6 C 43.820914,88 44,87.820914 44,87.6 V 84.4 C 44,84.179086 43.820914,84 43.6,84 H 40.4 C 40.179086,84 40,84.179086 40,84.4 V 88 H 32.4 C 32.179086,88 32,87.820914 32,87.6 V 84 h 3.6 C 35.820914,84 36,83.820914 36,83.6 V 80.4 C 36,80.179086 35.820914,80 35.6,80 H 32.4 C 32.179086,80 32,80.179086 32,80.4 V 84 H 28.4 C 28.179086,84 28,83.820914 28,83.6 V 80.4 C 28,80.179086 27.820914,80 27.6,80 H 24.4 C 24.179086,80 24,79.820914 24,79.6 V 76.4 C 24,76.179086 24.179086,76 24.4,76 H 35.6 C 35.820914,76 36,75.820914 36,75.6 V 72.4 C 36,72.179086 35.820914,72 35.6,72 H 32.4 C 32.179086,72 32,71.820914 32,71.6 V 68.4 C 32,68.179086 31.820914,68 31.6,68 H 28 v -4 h 8 v 3.6 c 0,0.220914 0.179086,0.4 0.4,0.4 H 40 v 3.6 c 0,0.220914 0.179086,0.4 0.4,0.4 h 3.2 C 43.820914,72 44,71.820914 44,71.6 V 68.4 C 44,68.179086 43.820914,68 43.6,68 H 40 v -4 h 8 v 3.6 c 0,0.220914 0.179086,0.4 0.4,0.4 h 3.2 c 0.220914,0 0.4,0.179086 0.4,0.4 V 80 H 48.4 C 48.179086,80 48,80.179086 48,80.4 v 7.2 c 0,0.220914 0.179086,0.4 0.4,0.4 h 3.2 c 0.220914,0 0.4,0.179086 0.4,0.4 V 96 H 48.4 C 48.179086,96 48,96.179086 48,96.4 v 3.6 z m -20,0 H 24.4 C 24.179086,100 24,99.820914 24,99.6 V 88 h 3.6 c 0.220914,0 0.4,0.179086 0.4,0.4 v 3.2 c 0,0.220914 0.179086,0.4 0.4,0.4 h 3.2 c 0.220914,0 0.4,0.179086 0.4,0.4 v 3.2 C 32,95.820914 31.820914,96 31.6,96 H 28.4 C 28.179086,96 28,96.179086 28,96.4 v 3.2 c 0,0.220914 -0.179086,0.4 -0.4,0.4 z m -8,0 H 16.4 C 16.179086,100 16,99.820914 16,99.6 V 96.4 C 16,96.179086 16.179086,96 16.4,96 h 3.2 c 0.220914,0 0.4,0.179086 0.4,0.4 v 3.2 c 0,0.220914 -0.179086,0.4 -0.4,0.4 z m 112,-4 H 124 v -7.6 c 0,-0.220914 0.17909,-0.4 0.4,-0.4 h 3.2 c 0.22091,0 0.4,-0.179086 0.4,-0.4 V 84 h 3.6 c 0.22091,0 0.4,0.179086 0.4,0.4 v 11.2 c 0,0.220914 -0.17909,0.4 -0.4,0.4 z m -36,0 H 84.4 C 84.179086,96 84,95.820914 84,95.6 V 92 h 3.6 C 87.820914,92 88,91.820914 88,91.6 V 88 h 3.6 c 0.220914,0 0.4,0.179086 0.4,0.4 v 3.2 c 0,0.220914 0.179086,0.4 0.4,0.4 H 96 v 4 z m -32,0 H 60.4 C 60.179086,96 60,95.820914 60,95.6 V 92.4 C 60,92.179086 60.179086,92 60.4,92 h 3.2 c 0.220914,0 0.4,0.179086 0.4,0.4 V 96 Z m 20,-4 H 80 V 88.4 C 80,88.179086 80.179086,88 80.4,88 H 84 v 4 z m -64,0 H 16.4 C 16.179086,92 16,91.820914 16,91.6 V 88.4 C 16,88.179086 16.179086,88 16.4,88 H 20 v 3.6 c 0,0.220914 -0.179086,0.4 -0.4,0.4 z m 100,-4 H 116 v -3.6 c 0,-0.220914 0.17909,-0.4 0.4,-0.4 h 3.2 c 0.22091,0 0.4,0.179086 0.4,0.4 v 3.2 c 0,0.220914 -0.17909,0.4 -0.4,0.4 z m -32,0 H 84 V 80.4 C 84,80.179086 83.820914,80 83.6,80 H 80.4 C 80.179086,80 80,80.179086 80,80.4 v 3.2 C 80,83.820914 79.820914,84 79.6,84 H 76 V 80.4 C 76,80.179086 75.820914,80 75.6,80 H 68.4 C 68.179086,80 68,80.179086 68,80.4 v 3.2 c 0,0.220914 0.179086,0.4 0.4,0.4 H 76 v 3.6 C 76,87.820914 75.820914,88 75.6,88 H 60.4 C 60.179086,88 60,87.820914 60,87.6 V 80.4 C 60,80.179086 60.179086,80 60.4,80 h 3.2 C 63.820914,80 64,79.820914 64,79.6 V 76.4 C 64,76.179086 63.820914,76 63.6,76 H 60.4 C 60.179086,76 60,75.820914 60,75.6 V 72.4 C 60,72.179086 60.179086,72 60.4,72 h 3.2 C 63.820914,72 64,71.820914 64,71.6 V 64.4 C 64,64.179086 64.179086,64 64.4,64 h 3.2 C 67.820914,64 68,63.820914 68,63.6 V 56 h 3.6 c 0.220914,0 0.4,0.179086 0.4,0.4 V 67.6 C 72,67.820914 71.820914,68 71.6,68 H 68.4 C 68.179086,68 68,68.179086 68,68.4 v 3.2 c 0,0.220914 0.179086,0.4 0.4,0.4 h 7.2 c 0.220914,0 0.4,0.179086 0.4,0.4 v 3.2 c 0,0.220914 0.179086,0.4 0.4,0.4 h 11.2 c 0.220914,0 0.4,0.179086 0.4,0.4 V 88 Z m -64,0 H 20 v -4 h 3.6 c 0.220914,0 0.4,0.179086 0.4,0.4 V 88 Z m 104,-4 h -3.2 c -0.22091,0 -0.4,-0.179086 -0.4,-0.4 v -7.2 c 0,-0.220914 -0.17909,-0.4 -0.4,-0.4 h -3.2 c -0.22091,0 -0.4,0.179086 -0.4,0.4 v 3.2 c 0,0.220914 -0.17909,0.4 -0.4,0.4 h -7.2 C 112.17909,80 112,79.820914 112,79.6 V 76 h 3.6 c 0.22091,0 0.4,-0.179086 0.4,-0.4 v -3.2 c 0,-0.220914 0.17909,-0.4 0.4,-0.4 h 15.2 c 0.22091,0 0.4,0.179086 0.4,0.4 v 3.2 c 0,0.220914 -0.17909,0.4 -0.4,0.4 h -3.2 c -0.22091,0 -0.4,0.179086 -0.4,0.4 V 84 Z m -72,0 H 52.4 C 52.179086,84 52,83.820914 52,83.6 V 80 h 3.6 c 0.220914,0 0.4,0.179086 0.4,0.4 v 3.2 c 0,0.220914 -0.179086,0.4 -0.4,0.4 z m -36,0 H 16.4 C 16.179086,84 16,83.820914 16,83.6 V 76.4 C 16,76.179086 16.179086,76 16.4,76 h 3.2 c 0.220914,0 0.4,0.179086 0.4,0.4 V 84 Z m 88,-4 H 104 v -7.6 c 0,-0.220914 0.17909,-0.4 0.4,-0.4 h 7.2 c 0.22091,0 0.4,0.179086 0.4,0.4 V 76 h -3.6 c -0.22091,0 -0.4,0.179086 -0.4,0.4 v 3.2 c 0,0.220914 -0.17909,0.4 -0.4,0.4 z M 44,79.6 V 76.4 C 44,76.179086 43.820914,76 43.6,76 H 40.4 C 40.179086,76 40,76.179086 40,76.4 v 3.2 c 0,0.220914 0.179086,0.4 0.4,0.4 h 3.2 C 43.820914,80 44,79.820914 44,79.6 Z M 99.6,72 H 92.4 C 92.179086,72 92,71.820914 92,71.6 V 68 h 3.6 C 95.820914,68 96,67.820914 96,67.6 V 64.4 C 96,64.179086 96.179086,64 96.4,64 h 11.2 c 0.22091,0 0.4,-0.179086 0.4,-0.4 V 60 h 4 v 7.6 c 0,0.220914 -0.17909,0.4 -0.4,0.4 h -11.2 c -0.22091,0 -0.4,0.179086 -0.4,0.4 v 3.2 c 0,0.220914 -0.179086,0.4 -0.4,0.4 z m -72,0 H 20.4 C 20.179086,72 20,71.820914 20,71.6 V 68.4 C 20,68.179086 19.820914,68 19.6,68 H 16.4 C 16.179086,68 16,67.820914 16,67.6 V 64.4 C 16,64.179086 16.179086,64 16.4,64 H 24 v 3.6 c 0,0.220914 0.179086,0.4 0.4,0.4 H 28 v 3.6 c 0,0.220914 -0.179086,0.4 -0.4,0.4 z m 104,-4 h -7.2 C 124.17909,68 124,67.820914 124,67.6 V 64.4 C 124,64.179086 123.82091,64 123.6,64 H 120 V 60.4 C 120,60.179086 119.82091,60 119.6,60 H 112 v -3.6 c 0,-0.220914 0.17909,-0.4 0.4,-0.4 h 3.2 c 0.22091,0 0.4,-0.179086 0.4,-0.4 V 52 h 4 v 3.6 c 0,0.220914 0.17909,0.4 0.4,0.4 h 7.6 v 7.6 c 0,0.220914 0.17909,0.4 0.4,0.4 h 3.2 c 0.22091,0 0.4,0.179086 0.4,0.4 v 3.2 c 0,0.220914 -0.17909,0.4 -0.4,0.4 z m -12,0 h -3.2 c -0.22091,0 -0.4,-0.179086 -0.4,-0.4 v -3.2 c 0,-0.220914 0.17909,-0.4 0.4,-0.4 h 3.6 v 3.6 c 0,0.220914 -0.17909,0.4 -0.4,0.4 z m -28,0 H 76.4 C 76.179086,68 76,67.820914 76,67.6 V 60.4 C 76,60.179086 76.179086,60 76.4,60 H 80 v 3.6 c 0,0.220914 0.179086,0.4 0.4,0.4 h 11.2 c 0.220914,0 0.4,0.179086 0.4,0.4 V 68 Z m -32,0 H 56.4 C 56.179086,68 56,67.820914 56,67.6 V 64.4 C 56,64.179086 55.820914,64 55.6,64 H 48 v -8 h 4 v 3.6 c 0,0.220914 0.179086,0.4 0.4,0.4 h 7.2 c 0.220914,0 0.4,0.179086 0.4,0.4 v 7.2 c 0,0.220914 -0.179086,0.4 -0.4,0.4 z m -20,-4 H 36 v -4 h 4 v 4 z m -12,0 H 24 V 60.4 C 24,60.179086 23.820914,60 23.6,60 H 16.4 C 16.179086,60 16,59.820914 16,59.6 V 56.4 C 16,56.179086 16.179086,56 16.4,56 h 7.2 C 23.820914,56 24,55.820914 24,55.6 V 52 h 4 v 3.6 c 0,0.220914 0.179086,0.4 0.4,0.4 h 3.2 C 31.820914,56 32,55.820914 32,55.6 V 52 h 3.6 c 0.220914,0 0.4,0.179086 0.4,0.4 V 60 H 28.4 C 28.179086,60 28,60.179086 28,60.4 V 64 Z m 80,-4 h -3.2 C 104.17909,60 104,59.820914 104,59.6 V 56.4 C 104,56.179086 103.82091,56 103.6,56 H 96 v -4 h 7.6 c 0.22091,0 0.4,-0.179086 0.4,-0.4 v -3.2 c 0,-0.220914 0.17909,-0.4 0.4,-0.4 h 11.2 c 0.22091,0 0.4,0.179086 0.4,0.4 V 52 h -7.6 c -0.22091,0 -0.4,0.179086 -0.4,0.4 V 60 Z m -12,0 H 80 V 52.4 C 80,52.179086 79.820914,52 79.6,52 H 76.4 C 76.179086,52 76,51.820914 76,51.6 V 48 h 8 v 3.6 c 0,0.220914 0.179086,0.4 0.4,0.4 h 3.2 c 0.220914,0 0.4,0.179086 0.4,0.4 v 3.2 c 0,0.220914 0.179086,0.4 0.4,0.4 H 96 v 3.6 c 0,0.220914 -0.179086,0.4 -0.4,0.4 z m -52,0 H 40 V 56.4 C 40,56.179086 40.179086,56 40.4,56 H 44 v 3.6 c 0,0.220914 -0.179086,0.4 -0.4,0.4 z m 88,-4 H 128 v -4 h 3.6 c 0.22091,0 0.4,0.179086 0.4,0.4 v 3.2 c 0,0.220914 -0.17909,0.4 -0.4,0.4 z m -64,0 H 64.4 C 64.179086,56 64,55.820914 64,55.6 V 52 h 4 v 4 z m -12,0 H 52 V 52.4 C 52,52.179086 52.179086,52 52.4,52 h 3.2 c 0.220914,0 0.4,0.179086 0.4,0.4 v 3.2 c 0,0.220914 -0.179086,0.4 -0.4,0.4 z m -8,0 H 44 V 52.4 C 44,52.179086 43.820914,52 43.6,52 H 40.4 C 40.179086,52 40,51.820914 40,51.6 V 48.4 C 40,48.179086 40.179086,48 40.4,48 H 48 v 8 z m 80,-4 H 120 v -3.6 c 0,-0.220914 0.17909,-0.4 0.4,-0.4 h 7.2 c 0.22091,0 0.4,0.179086 0.4,0.4 V 52 Z m -32,0 H 92.4 C 92.179086,52 92,51.820914 92,51.6 V 48 h 3.6 c 0.220914,0 0.4,0.179086 0.4,0.4 V 52 Z m -24,0 H 68 V 48.4 C 68,48.179086 68.179086,48 68.4,48 H 72 v 3.6 c 0,0.220914 -0.179086,0.4 -0.4,0.4 z m -8,0 H 60.4 C 60.179086,52 60,51.820914 60,51.6 V 48 h 3.6 c 0.220914,0 0.4,0.179086 0.4,0.4 V 52 Z m -32,0 H 28 V 48.4 C 28,48.179086 28.179086,48 28.4,48 h 3.2 c 0.220914,0 0.4,0.179086 0.4,0.4 V 52 Z m -8,0 H 16.4 C 16.179086,52 16,51.820914 16,51.6 V 48.4 C 16,48.179086 16.179086,48 16.4,48 h 7.2 c 0.220914,0 0.4,0.179086 0.4,0.4 V 52 Z m 68,-4 H 84 v -4 h 3.6 C 87.820914,44 88,43.820914 88,43.6 V 36.4 C 88,36.179086 88.179086,36 88.4,36 h 7.2 c 0.220914,0 0.4,0.179086 0.4,0.4 V 40 H 92.4 C 92.179086,40 92,40.179086 92,40.4 V 48 Z m -16,0 H 72 V 40.4 C 72,40.179086 72.179086,40 72.4,40 H 76 v 8 z m -16,0 H 56.4 C 56.179086,48 56,47.820914 56,47.6 V 36.4 C 56,36.179086 55.820914,36 55.6,36 H 52.4 C 52.179086,36 52,36.179086 52,36.4 V 47.6 C 52,47.820914 51.820914,48 51.6,48 H 48 V 32.4 C 48,32.179086 48.179086,32 48.4,32 h 3.2 C 51.820914,32 52,31.820914 52,31.6 V 28 h 3.6 c 0.220914,0 0.4,0.179086 0.4,0.4 v 3.2 c 0,0.220914 0.179086,0.4 0.4,0.4 h 3.2 c 0.220914,0 0.4,0.179086 0.4,0.4 V 48 Z m 72,-4 H 104.4 C 104.17909,44 104,43.820914 104,43.6 V 16.4 c 0,-0.220914 0.17909,-0.4 0.4,-0.4 h 27.2 c 0.22091,0 0.4,0.179086 0.4,0.4 v 27.2 c 0,0.220914 -0.17909,0.4 -0.4,0.4 z m -32,0 H 96.4 C 96.179086,44 96,43.820914 96,43.6 V 40 h 3.6 c 0.220914,0 0.4,0.179086 0.4,0.4 v 3.2 c 0,0.220914 -0.179086,0.4 -0.4,0.4 z m -16,0 H 80.4 C 80.179086,44 80,43.820914 80,43.6 V 40 h 3.6 c 0.220914,0 0.4,0.179086 0.4,0.4 V 44 Z m -16,0 H 64.4 C 64.179086,44 64,43.820914 64,43.6 V 32.4 C 64,32.179086 64.179086,32 64.4,32 h 3.2 c 0.220914,0 0.4,0.179086 0.4,0.4 v 11.2 c 0,0.220914 -0.179086,0.4 -0.4,0.4 z m -24,0 H 16.4 C 16.179086,44 16,43.820914 16,43.6 V 16.4 C 16,16.179086 16.179086,16 16.4,16 h 27.2 c 0.220914,0 0.4,0.179086 0.4,0.4 V 43.6 C 44,43.820914 43.820914,44 43.6,44 Z M 128,39.6 V 20.4 c 0,-0.220914 -0.17909,-0.4 -0.4,-0.4 h -19.2 c -0.22091,0 -0.4,0.179086 -0.4,0.4 v 19.2 c 0,0.220914 0.17909,0.4 0.4,0.4 h 19.2 c 0.22091,0 0.4,-0.179086 0.4,-0.4 z M 79.6,40 H 76 V 36.4 C 76,36.179086 75.820914,36 75.6,36 H 72.4 C 72.179086,36 72,35.820914 72,35.6 V 28.4 C 72,28.179086 72.179086,28 72.4,28 H 84 v 7.6 C 84,35.820914 83.820914,36 83.6,36 H 80.4 C 80.179086,36 80,36.179086 80,36.4 V 40 Z M 40,39.6 V 20.4 C 40,20.179086 39.820914,20 39.6,20 H 20.4 C 20.179086,20 20,20.179086 20,20.4 v 19.2 c 0,0.220914 0.179086,0.4 0.4,0.4 H 39.6 C 39.820914,40 40,39.820914 40,39.6 Z M 123.6,36 H 112.4 C 112.17909,36 112,35.820914 112,35.6 V 24.4 c 0,-0.220914 0.17909,-0.4 0.4,-0.4 h 11.2 c 0.22091,0 0.4,0.179086 0.4,0.4 v 11.2 c 0,0.220914 -0.17909,0.4 -0.4,0.4 z m -88,0 H 24.4 C 24.179086,36 24,35.820914 24,35.6 V 24.4 C 24,24.179086 24.179086,24 24.4,24 h 11.2 c 0.220914,0 0.4,0.179086 0.4,0.4 v 11.2 c 0,0.220914 -0.179086,0.4 -0.4,0.4 z m 64,-4 H 88.4 C 88.179086,32 88,31.820914 88,31.6 V 28.4 C 88,28.179086 87.820914,28 87.6,28 H 84 V 24.4 C 84,24.179086 83.820914,24 83.6,24 H 76.4 C 76.179086,24 76,23.820914 76,23.6 V 16.4 C 76,16.179086 76.179086,16 76.4,16 h 3.2 c 0.220914,0 0.4,0.179086 0.4,0.4 v 3.2 c 0,0.220914 0.179086,0.4 0.4,0.4 h 3.2 C 83.820914,20 84,19.820914 84,19.6 V 16.4 C 84,16.179086 84.179086,16 84.4,16 h 11.2 c 0.220914,0 0.4,0.179086 0.4,0.4 v 3.2 C 96,19.820914 95.820914,20 95.6,20 H 88.4 C 88.179086,20 88,20.179086 88,20.4 v 3.2 c 0,0.220914 0.179086,0.4 0.4,0.4 h 3.2 c 0.220914,0 0.4,0.179086 0.4,0.4 v 3.2 c 0,0.220914 0.179086,0.4 0.4,0.4 h 3.2 C 95.820914,28 96,27.820914 96,27.6 V 24.4 C 96,24.179086 96.179086,24 96.4,24 h 3.2 c 0.220914,0 0.4,0.179086 0.4,0.4 v 7.2 c 0,0.220914 -0.179086,0.4 -0.4,0.4 z m -48,-4 H 48.4 C 48.179086,28 48,27.820914 48,27.6 V 20.4 C 48,20.179086 48.179086,20 48.4,20 h 7.2 C 55.820914,20 56,19.820914 56,19.6 V 16.4 C 56,16.179086 56.179086,16 56.4,16 h 3.2 c 0.220914,0 0.4,0.179086 0.4,0.4 v 7.2 C 60,23.820914 59.820914,24 59.6,24 H 52.4 C 52.179086,24 52,24.179086 52,24.4 V 28 Z m 20,-4 H 68.4 C 68.179086,24 68,23.820914 68,23.6 V 20.4 C 68,20.179086 68.179086,20 68.4,20 h 3.2 c 0.220914,0 0.4,0.179086 0.4,0.4 v 3.2 c 0,0.220914 -0.179086,0.4 -0.4,0.4 z" />
    </g>
  </g>
</svg>
